<svg width="74" height="74" viewBox="0 0 74 74" fill="none" xmlns="http://www.w3.org/2000/svg">
<rect x="1.5" y="1.5" width="71" height="71" rx="35.5" stroke="#F38A3F" stroke-width="3"/>
<circle cx="37" cy="37" r="30" fill="#F38A3F"/>
<path d="M38.2646 23.0909L37.831 42.0902H33.6001L33.1797 23.0909H38.2646ZM35.7156 50.2891C34.9184 50.2891 34.2352 50.0088 33.6658 49.4482C33.1052 48.8875 32.8249 48.2043 32.8249 47.3984C32.8249 46.6101 33.1052 45.9356 33.6658 45.375C34.2352 44.8144 34.9184 44.5341 35.7156 44.5341C36.4951 44.5341 37.1696 44.8144 37.739 45.375C38.3171 45.9356 38.6062 46.6101 38.6062 47.3984C38.6062 47.9328 38.4704 48.4189 38.1989 48.8569C37.9361 49.2949 37.5857 49.6452 37.1477 49.908C36.7185 50.1621 36.2411 50.2891 35.7156 50.2891Z" fill="white"/>
</svg>
