<svg width="16" height="16" viewBox="0 0 16 16" fill="none" xmlns="http://www.w3.org/2000/svg">
<path fill-rule="evenodd" clip-rule="evenodd" d="M6.62971 2.16663H9.3716C10.5968 2.16662 11.5672 2.16661 12.3267 2.26872C13.1083 2.3738 13.7409 2.59521 14.2398 3.09412C14.7387 3.59303 14.9601 4.22566 15.0652 5.00728C15.1255 5.45586 15.1502 5.97803 15.1603 6.58281C15.1649 6.61006 15.1673 6.63807 15.1673 6.66663C15.1673 6.69013 15.1657 6.71325 15.1626 6.73589C15.1673 7.11304 15.1673 7.52118 15.1673 7.96235V8.03757C15.1673 9.26274 15.1673 10.2332 15.0652 10.9926C14.9601 11.7743 14.7387 12.4069 14.2398 12.9058C13.7409 13.4047 13.1083 13.6261 12.3267 13.7312C11.5672 13.8333 10.5968 13.8333 9.37159 13.8333H6.62971C5.40454 13.8333 4.43411 13.8333 3.67464 13.7312C2.89302 13.6261 2.26039 13.4047 1.76148 12.9058C1.26257 12.4069 1.04116 11.7743 0.936075 10.9926C0.833966 10.2332 0.833974 9.26274 0.833985 8.03757V7.96235C0.833981 7.52117 0.833977 7.11303 0.838742 6.73588C0.835606 6.71324 0.833985 6.69012 0.833985 6.66663C0.833985 6.63807 0.836379 6.61007 0.840977 6.58282C0.851079 5.97803 0.875764 5.45586 0.936075 5.00728C1.04116 4.22566 1.26257 3.59303 1.76148 3.09412C2.26039 2.59521 2.89302 2.3738 3.67464 2.26872C4.43411 2.16661 5.40453 2.16662 6.62971 2.16663ZM1.83531 7.16663C1.83404 7.42555 1.83398 7.70269 1.83398 7.99996C1.83398 9.27117 1.83505 10.1743 1.92716 10.8594C2.01733 11.5301 2.18645 11.9166 2.46859 12.1987C2.75073 12.4808 3.13716 12.6499 3.80788 12.7401C4.49299 12.8322 5.3961 12.8333 6.66732 12.8333H9.33399C10.6052 12.8333 11.5083 12.8322 12.1934 12.7401C12.8641 12.6499 13.2506 12.4808 13.5327 12.1987C13.8149 11.9166 13.984 11.5301 14.0741 10.8594C14.1663 10.1743 14.1673 9.27117 14.1673 7.99996C14.1673 7.70269 14.1673 7.42555 14.166 7.16663H1.83531ZM14.1499 6.16663H1.85137C1.86441 5.77547 1.88723 5.43752 1.92716 5.14053C2.01733 4.4698 2.18645 4.08337 2.46859 3.80123C2.75073 3.51909 3.13716 3.34998 3.80788 3.2598C4.49299 3.16769 5.3961 3.16663 6.66732 3.16663H9.33399C10.6052 3.16663 11.5083 3.16769 12.1934 3.2598C12.8641 3.34998 13.2506 3.51909 13.5327 3.80123C13.8149 4.08337 13.984 4.4698 14.0741 5.14053C14.1141 5.43752 14.1369 5.77547 14.1499 6.16663ZM10.6375 8.16662H10.6971C10.9857 8.16659 11.2502 8.16656 11.4655 8.19549C11.7024 8.22736 11.9529 8.30232 12.1589 8.50834C12.365 8.71435 12.4399 8.96484 12.4718 9.20182C12.5007 9.41703 12.5007 9.68159 12.5007 9.97013V10.0298C12.5007 10.3183 12.5007 10.5829 12.4718 10.7981C12.4399 11.0351 12.365 11.2856 12.1589 11.4916C11.9529 11.6976 11.7024 11.7726 11.4655 11.8044C11.2502 11.8334 10.9857 11.8333 10.6971 11.8333H10.6375C10.3489 11.8333 10.0844 11.8334 9.86918 11.8044C9.63219 11.7726 9.38171 11.6976 9.17569 11.4916C8.96968 11.2856 8.89471 11.0351 8.86285 10.7981C8.83392 10.5829 8.83395 10.3183 8.83398 10.0298V9.97013C8.83395 9.68159 8.83392 9.41703 8.86285 9.20182C8.89471 8.96484 8.96968 8.71435 9.17569 8.50834C9.38171 8.30232 9.63219 8.22736 9.86918 8.19549C10.0844 8.16656 10.3489 8.16659 10.6375 8.16662ZM9.88443 9.21453L9.88281 9.21545L9.88189 9.21707C9.88122 9.21836 9.88014 9.22057 9.87876 9.22394C9.87278 9.23846 9.86259 9.2707 9.85393 9.33507C9.83505 9.47555 9.83399 9.67156 9.83399 9.99996C9.83399 10.3284 9.83505 10.5244 9.85393 10.6649C9.86259 10.7292 9.87278 10.7615 9.87876 10.776C9.87932 10.7774 9.87983 10.7785 9.88029 10.7795C9.88095 10.781 9.88149 10.7821 9.88189 10.7828L9.88281 10.7845L9.88443 10.7854C9.88572 10.7861 9.88793 10.7871 9.8913 10.7885C9.90582 10.7945 9.93806 10.8047 10.0024 10.8133C10.1429 10.8322 10.3389 10.8333 10.6673 10.8333C10.9957 10.8333 11.1917 10.8322 11.3322 10.8133C11.3966 10.8047 11.4288 10.7945 11.4433 10.7885C11.4467 10.7871 11.4489 10.7861 11.4502 10.7854L11.4518 10.7845L11.4527 10.7828C11.4534 10.7816 11.4545 10.7793 11.4559 10.776C11.4619 10.7615 11.472 10.7292 11.4807 10.6649C11.4996 10.5244 11.5007 10.3284 11.5007 9.99996C11.5007 9.67156 11.4996 9.47555 11.4807 9.33507C11.472 9.2707 11.4619 9.23846 11.4559 9.22394C11.4551 9.22197 11.4544 9.2204 11.4538 9.21918C11.4534 9.21831 11.453 9.21761 11.4527 9.21707L11.4518 9.21545L11.4502 9.21453C11.4489 9.21386 11.4467 9.21278 11.4433 9.2114C11.4288 9.20543 11.3966 9.19523 11.3322 9.18658C11.1917 9.16769 10.9957 9.16663 10.6673 9.16663C10.3389 9.16663 10.1429 9.16769 10.0024 9.18658C9.93806 9.19523 9.90582 9.20543 9.8913 9.2114C9.88793 9.21278 9.88572 9.21386 9.88443 9.21453ZM3.50065 8.99996C3.50065 8.72382 3.72451 8.49996 4.00065 8.49996H5.33398C5.61013 8.49996 5.83398 8.72382 5.83398 8.99996C5.83398 9.2761 5.61013 9.49996 5.33398 9.49996H4.00065C3.72451 9.49996 3.50065 9.2761 3.50065 8.99996ZM9.88281 10.7845C9.88254 10.7842 9.88263 10.7842 9.88281 10.7845C9.88304 10.7847 9.88311 10.7848 9.88281 10.7845ZM11.4518 10.7845C11.4517 10.7846 11.4518 10.7845 11.4518 10.7845V10.7845ZM3.50065 11C3.50065 10.7238 3.72451 10.5 4.00065 10.5H6.66732C6.94346 10.5 7.16732 10.7238 7.16732 11C7.16732 11.2761 6.94346 11.5 6.66732 11.5H4.00065C3.72451 11.5 3.50065 11.2761 3.50065 11Z" fill="#E2483D"/>
</svg>
