<svg width="16" height="16" viewBox="0 0 16 16" fill="none" xmlns="http://www.w3.org/2000/svg">
<g clip-path="url(#clip0_363_792)">
<path fill-rule="evenodd" clip-rule="evenodd" d="M3.50065 9.66662C3.50065 9.39048 3.72451 9.16662 4.00065 9.16662H9.33398C9.61013 9.16662 9.83398 9.39048 9.83398 9.66662C9.83398 9.94276 9.61013 10.1666 9.33398 10.1666H4.00065C3.72451 10.1666 3.50065 9.94276 3.50065 9.66662Z" fill="#3A49DA"/>
<path fill-rule="evenodd" clip-rule="evenodd" d="M3.50065 12C3.50065 11.7238 3.72451 11.5 4.00065 11.5H7.66732C7.94346 11.5 8.16732 11.7238 8.16732 12C8.16732 12.2761 7.94346 12.5 7.66732 12.5H4.00065C3.72451 12.5 3.50065 12.2761 3.50065 12Z" fill="#3A49DA"/>
<path fill-rule="evenodd" clip-rule="evenodd" d="M8.16732 1.8894C7.86038 1.83724 7.44197 1.83329 6.68718 1.83329C5.40939 1.83329 4.50115 1.83434 3.81255 1.9265C3.13796 2.01678 2.75034 2.18614 2.46859 2.46789C2.18645 2.75003 2.01733 3.13646 1.92716 3.80718C1.83505 4.49229 1.83398 5.39541 1.83398 6.66662V9.33329C1.83398 10.6045 1.83505 11.5076 1.92716 12.1927C2.01733 12.8634 2.18645 13.2499 2.46859 13.532C2.75073 13.8142 3.13716 13.9833 3.80788 14.0734C4.49299 14.1656 5.3961 14.1666 6.66732 14.1666H9.33399C10.6052 14.1666 11.5083 14.1656 12.1934 14.0734C12.8641 13.9833 13.2506 13.8142 13.5327 13.532C13.8149 13.2499 13.984 12.8634 14.0741 12.1927C14.1663 11.5076 14.1673 10.6045 14.1673 9.33329V9.04188C14.1673 8.01788 14.1601 7.53244 14.0514 7.16662H11.9649C11.2096 7.16664 10.5925 7.16665 10.1052 7.10114C9.59594 7.03267 9.15438 6.88448 8.80192 6.53202C8.44946 6.17955 8.30127 5.738 8.2328 5.2287C8.16729 4.74145 8.1673 4.1243 8.16732 3.36908V1.8894ZM9.16732 2.40625V3.33329C9.16732 4.13309 9.16838 4.68265 9.22388 5.09545C9.27744 5.49386 9.37333 5.68922 9.50903 5.82491C9.64472 5.9606 9.84008 6.05649 10.2385 6.11006C10.6513 6.16556 11.2008 6.16662 12.0007 6.16662H13.347C13.1493 5.97492 12.8961 5.74523 12.5673 5.4493L9.92813 3.07403C9.60454 2.7828 9.36371 2.56783 9.16732 2.40625ZM6.78429 0.833269C7.70736 0.833022 8.30372 0.832862 8.8526 1.04349C9.40147 1.25411 9.84276 1.65148 10.5255 2.26629C10.5491 2.28751 10.5729 2.30899 10.5971 2.33074L13.2363 4.706C13.2644 4.73129 13.2921 4.75625 13.3195 4.78091C14.1087 5.49068 14.6189 5.94964 14.8934 6.56593C15.1679 7.18222 15.1677 7.86853 15.1673 8.92987C15.1673 8.96675 15.1673 9.00408 15.1673 9.04188V9.37089C15.1673 10.5961 15.1673 11.5665 15.0652 12.326C14.9601 13.1076 14.7387 13.7402 14.2398 14.2391C13.7409 14.738 13.1083 14.9594 12.3267 15.0645C11.5672 15.1666 10.5968 15.1666 9.37159 15.1666H6.62971C5.40454 15.1666 4.43411 15.1666 3.67464 15.0645C2.89302 14.9594 2.26039 14.738 1.76148 14.2391C1.26257 13.7402 1.04116 13.1076 0.936075 12.326C0.833966 11.5665 0.833974 10.5961 0.833985 9.3709V6.62901C0.833974 5.40383 0.833966 4.43341 0.936075 3.67394C1.04116 2.89232 1.26257 2.25969 1.76148 1.76078C2.26078 1.26148 2.89553 1.04031 3.6799 0.935336C4.44254 0.833267 5.41779 0.833275 6.64966 0.833286L6.68718 0.833286C6.71995 0.833286 6.75232 0.833277 6.78429 0.833269Z" fill="#3A49DA"/>
</g>
<defs>
<clipPath id="clip0_363_792">
<rect width="16" height="16" fill="white"/>
</clipPath>
</defs>
</svg>
