<svg width="16" height="16" viewBox="0 0 16 16" fill="none" xmlns="http://www.w3.org/2000/svg">
<path fill-rule="evenodd" clip-rule="evenodd" d="M12.0952 2.42059C11.3152 2.55935 10.2636 2.90845 8.78781 3.40038L5.44696 4.514C4.26027 4.90956 3.40075 5.1965 2.79366 5.45471C2.15894 5.72466 1.93316 5.91283 1.85983 6.03897C1.63396 6.4275 1.63396 6.90734 1.85983 7.29587C1.93316 7.42201 2.15894 7.61018 2.79366 7.88013C3.40075 8.13834 4.26027 8.42528 5.44696 8.82084C5.4657 8.82709 5.4842 8.83324 5.50247 8.83932C5.75555 8.9235 5.96465 8.99306 6.14734 9.08858L9.69625 5.57878C9.89739 5.37987 10.2217 5.38166 10.4206 5.5828C10.6195 5.78393 10.6177 6.10823 10.4166 6.30715L6.8833 9.80149C6.99346 9.99603 7.06802 10.2202 7.16007 10.4969C7.16615 10.5152 7.1723 10.5337 7.17855 10.5524C7.57411 11.7391 7.86105 12.5986 8.11926 13.2057C8.38921 13.8404 8.57738 14.0662 8.70352 14.1396C9.09204 14.3654 9.57189 14.3654 9.96042 14.1396C10.0866 14.0662 10.2747 13.8404 10.5447 13.2057C10.8029 12.5986 11.0898 11.7391 11.4854 10.5524L12.599 7.21159C13.0909 5.7358 13.44 4.68422 13.5788 3.90424C13.7182 3.12054 13.6117 2.78764 13.4117 2.58768C13.2118 2.38772 12.8789 2.28118 12.0952 2.42059ZM11.9157 1.41202C12.7839 1.25759 13.5657 1.29298 14.1361 1.86331C14.7064 2.43365 14.7418 3.21552 14.5874 4.08365C14.4339 4.94654 14.0595 6.06947 13.5856 7.49117L12.449 10.901C12.0634 12.058 11.7637 12.9569 11.4874 13.6067C11.2208 14.2334 10.9248 14.7638 10.4753 15.0252C9.76845 15.4361 8.89548 15.4361 8.18866 15.0252C7.7391 14.7638 7.44313 14.2334 7.17657 13.6067C6.90023 12.9569 6.60058 12.058 6.21493 10.901L6.20671 10.8764C6.0716 10.4711 6.03042 10.3611 5.97207 10.274C5.90677 10.1764 5.82298 10.0926 5.72544 10.0273C5.63828 9.96897 5.52834 9.92779 5.12301 9.79268L5.09832 9.78445C3.94139 9.39881 3.04244 9.09916 2.39271 8.82282C1.76599 8.55626 1.23555 8.26029 0.9742 7.81073C0.563287 7.1039 0.563287 6.23094 0.974201 5.52411C1.23555 5.07455 1.76599 4.77858 2.39271 4.51202C3.04244 4.23568 3.94141 3.93602 5.09836 3.55038L8.50824 2.41375C9.92993 1.93984 11.0529 1.56552 11.9157 1.41202Z" fill="#FF538A"/>
</svg>
