<svg width="16" height="16" viewBox="0 0 16 16" fill="none" xmlns="http://www.w3.org/2000/svg">
<path fill-rule="evenodd" clip-rule="evenodd" d="M8.00065 0.833374C6.25175 0.833374 4.83398 2.25114 4.83398 4.00004C4.83398 5.74894 6.25175 7.16671 8.00065 7.16671C9.74955 7.16671 11.1673 5.74894 11.1673 4.00004C11.1673 2.25114 9.74955 0.833374 8.00065 0.833374ZM5.83398 4.00004C5.83398 2.80342 6.80403 1.83337 8.00065 1.83337C9.19727 1.83337 10.1673 2.80342 10.1673 4.00004C10.1673 5.19666 9.19727 6.16671 8.00065 6.16671C6.80403 6.16671 5.83398 5.19666 5.83398 4.00004Z" fill="#2ABB7F"/>
<path fill-rule="evenodd" clip-rule="evenodd" d="M8.00065 8.16671C6.64109 8.16671 5.38566 8.48054 4.45275 9.01363C3.53398 9.53864 2.83398 10.3401 2.83398 11.3334C2.83398 12.3266 3.53398 13.1281 4.45275 13.6531C5.38566 14.1862 6.64109 14.5 8.00065 14.5C9.36021 14.5 10.6156 14.1862 11.5486 13.6531C12.4673 13.1281 13.1673 12.3266 13.1673 11.3334C13.1673 10.3401 12.4673 9.53864 11.5486 9.01363C10.6156 8.48054 9.36021 8.16671 8.00065 8.16671ZM3.83398 11.3334C3.83398 10.8539 4.17866 10.322 4.94889 9.88188C5.70498 9.44983 6.78288 9.16671 8.00065 9.16671C9.21842 9.16671 10.2963 9.44983 11.0524 9.88188C11.8226 10.322 12.1673 10.8539 12.1673 11.3334C12.1673 11.8129 11.8226 12.3447 11.0524 12.7849C10.2963 13.2169 9.21842 13.5 8.00065 13.5C6.78288 13.5 5.70498 13.2169 4.94889 12.7849C4.17866 12.3447 3.83398 11.8129 3.83398 11.3334Z" fill="#2ABB7F"/>
</svg>
