<svg width="16" height="16" viewBox="0 0 16 16" fill="none" xmlns="http://www.w3.org/2000/svg">
<path fill-rule="evenodd" clip-rule="evenodd" d="M4.33268 1.16663C2.58378 1.16663 1.16602 2.58439 1.16602 4.33329C1.16602 6.08219 2.58378 7.49996 4.33268 7.49996C6.08158 7.49996 7.49935 6.08219 7.49935 4.33329C7.49935 2.58439 6.08158 1.16663 4.33268 1.16663ZM2.16602 4.33329C2.16602 3.13668 3.13607 2.16663 4.33268 2.16663C5.5293 2.16663 6.49935 3.13668 6.49935 4.33329C6.49935 5.52991 5.5293 6.49996 4.33268 6.49996C3.13607 6.49996 2.16602 5.52991 2.16602 4.33329Z" fill="#FCC003"/>
<path fill-rule="evenodd" clip-rule="evenodd" d="M11.666 8.49996C9.91711 8.49996 8.49935 9.91772 8.49935 11.6666C8.49935 13.4155 9.91711 14.8333 11.666 14.8333C13.4149 14.8333 14.8327 13.4155 14.8327 11.6666C14.8327 9.91772 13.4149 8.49996 11.666 8.49996ZM9.49935 11.6666C9.49935 10.47 10.4694 9.49996 11.666 9.49996C12.8626 9.49996 13.8327 10.47 13.8327 11.6666C13.8327 12.8632 12.8626 13.8333 11.666 13.8333C10.4694 13.8333 9.49935 12.8632 9.49935 11.6666Z" fill="#FCC003"/>
<path fill-rule="evenodd" clip-rule="evenodd" d="M8.49935 4.33329C8.49935 2.58439 9.91711 1.16663 11.666 1.16663C13.4149 1.16663 14.8327 2.58439 14.8327 4.33329C14.8327 6.08219 13.4149 7.49996 11.666 7.49996C9.91711 7.49996 8.49935 6.08219 8.49935 4.33329ZM11.666 2.16663C10.4694 2.16663 9.49935 3.13668 9.49935 4.33329C9.49935 5.52991 10.4694 6.49996 11.666 6.49996C12.8626 6.49996 13.8327 5.52991 13.8327 4.33329C13.8327 3.13668 12.8626 2.16663 11.666 2.16663Z" fill="#FCC003"/>
<path fill-rule="evenodd" clip-rule="evenodd" d="M4.33268 8.49996C2.58378 8.49996 1.16602 9.91772 1.16602 11.6666C1.16602 13.4155 2.58378 14.8333 4.33268 14.8333C6.08158 14.8333 7.49935 13.4155 7.49935 11.6666C7.49935 9.91772 6.08158 8.49996 4.33268 8.49996ZM2.16602 11.6666C2.16602 10.47 3.13607 9.49996 4.33268 9.49996C5.5293 9.49996 6.49935 10.47 6.49935 11.6666C6.49935 12.8632 5.5293 13.8333 4.33268 13.8333C3.13607 13.8333 2.16602 12.8632 2.16602 11.6666Z" fill="#FCC003"/>
</svg>
