<svg width="16" height="16" viewBox="0 0 16 16" fill="none" xmlns="http://www.w3.org/2000/svg">
<g clip-path="url(#clip0_363_1366)">
<path fill-rule="evenodd" clip-rule="evenodd" d="M6.97441 0.833374H9.02689C10.0958 0.83337 10.9338 0.833367 11.6032 0.897019C12.2856 0.961899 12.8443 1.09642 13.3369 1.39825C13.8527 1.71433 14.2864 2.148 14.6024 2.6638C14.9043 3.15634 15.0388 3.71508 15.1037 4.39745C15.1673 5.0669 15.1673 5.90487 15.1673 6.97379V7.68527C15.1673 8.44613 15.1673 9.04269 15.1344 9.5246C15.101 10.0149 15.0318 10.423 14.8755 10.8003C14.4865 11.7396 13.7402 12.4859 12.8009 12.8749C12.2643 13.0972 11.653 13.1465 10.8162 13.1609C10.5235 13.166 10.338 13.1697 10.1967 13.1853C10.0646 13.2 10.0134 13.2214 9.98348 13.2388C9.95187 13.2572 9.90881 13.2907 9.83405 13.3933C9.75315 13.5043 9.66173 13.6577 9.51676 13.9026L9.15536 14.5132C8.63965 15.3845 7.36163 15.3845 6.84591 14.5132L6.48451 13.9026C6.33955 13.6577 6.24813 13.5043 6.16722 13.3933C6.09246 13.2907 6.0494 13.2572 6.0178 13.2388C5.98784 13.2214 5.93664 13.2 5.80457 13.1853C5.66323 13.1697 5.47782 13.166 5.18509 13.1609C4.34823 13.1465 3.73701 13.0972 3.20036 12.8749C2.26109 12.4859 1.51484 11.7396 1.12578 10.8003C0.96947 10.423 0.900315 10.0149 0.866861 9.5246C0.833981 9.04268 0.833982 8.44613 0.833985 7.68527L0.833984 6.9738C0.83398 5.90488 0.833977 5.0669 0.897629 4.39745C0.962509 3.71508 1.09703 3.15634 1.39886 2.6638C1.71494 2.148 2.14861 1.71433 2.66441 1.39825C3.15695 1.09642 3.71569 0.961899 4.39806 0.897019C5.06751 0.833367 5.90549 0.83337 6.97441 0.833374ZM4.49271 1.89253C3.88354 1.95045 3.49592 2.06153 3.18691 2.25089C2.80566 2.48452 2.48513 2.80505 2.2515 3.1863C2.06214 3.49531 1.95106 3.88293 1.89314 4.4921C1.83451 5.10871 1.83398 5.89922 1.83398 7.00004V7.66671C1.83398 8.45012 1.83426 9.01264 1.86454 9.45652C1.89452 9.89592 1.95223 10.1824 2.04966 10.4176C2.33723 11.1119 2.8888 11.6635 3.58305 11.951C3.92681 12.0934 4.36536 12.1467 5.20232 12.1611L5.22353 12.1614C5.48886 12.166 5.72138 12.17 5.91463 12.1914C6.12229 12.2144 6.32539 12.2609 6.52056 12.3744C6.71409 12.4869 6.85367 12.6373 6.97536 12.8043C7.0878 12.9585 7.20335 13.1538 7.33423 13.3749L7.70646 14.0038C7.83497 14.2209 8.16631 14.2209 8.29481 14.0038L8.66705 13.3749C8.79792 13.1538 8.91348 12.9585 9.02592 12.8043C9.1476 12.6373 9.28719 12.4869 9.48072 12.3744C9.67589 12.2609 9.87898 12.2144 10.0866 12.1914C10.2799 12.17 10.5124 12.166 10.7777 12.1614L10.799 12.1611C11.6359 12.1467 12.0745 12.0934 12.4183 11.951C13.1125 11.6635 13.6641 11.1119 13.9516 10.4176C14.0491 10.1824 14.1068 9.89592 14.1368 9.45652C14.167 9.01264 14.1673 8.45012 14.1673 7.66671V7.00004C14.1673 5.89922 14.1668 5.10871 14.1082 4.4921C14.0502 3.88293 13.9392 3.49531 13.7498 3.1863C13.5162 2.80505 13.1956 2.48452 12.8144 2.25089C12.5054 2.06153 12.1178 1.95045 11.5086 1.89253C10.892 1.8339 10.1015 1.83337 9.00065 1.83337H7.00065C5.89983 1.83337 5.10932 1.8339 4.49271 1.89253Z" fill="#04E1CB"/>
</g>
<defs>
<clipPath id="clip0_363_1366">
<rect width="16" height="16" fill="white"/>
</clipPath>
</defs>
</svg>
