<svg width="16" height="16" viewBox="0 0 16 16" fill="none" xmlns="http://www.w3.org/2000/svg">
<g clip-path="url(#clip0_363_1345)">
<path d="M6.00065 11.5C5.72451 11.5 5.50065 11.7239 5.50065 12C5.50065 12.2762 5.72451 12.5 6.00065 12.5H10.0007C10.2768 12.5 10.5007 12.2762 10.5007 12C10.5007 11.7239 10.2768 11.5 10.0007 11.5H6.00065Z" fill="#1AB9FF"/>
<path fill-rule="evenodd" clip-rule="evenodd" d="M8.00065 0.833374C7.52857 0.833374 7.09967 0.968587 6.63435 1.19487C6.18455 1.4136 5.66493 1.7361 5.01589 2.13892L3.63817 2.99397C3.02404 3.37511 2.53228 3.68031 2.15325 3.97058C1.76075 4.27117 1.45928 4.5773 1.24152 4.97513C1.02422 5.37212 0.926363 5.79454 0.879444 6.29384C0.833975 6.77774 0.833979 7.36945 0.833985 8.11153V9.18661C0.833975 10.4559 0.833968 11.4578 0.935787 12.2411C1.04023 13.0447 1.25969 13.6934 1.75556 14.2063C2.25371 14.7216 2.88762 14.9518 3.67239 15.061C4.43298 15.1667 5.40436 15.1667 6.62855 15.1667H9.37271C10.5969 15.1667 11.5683 15.1667 12.3289 15.061C13.1137 14.9518 13.7476 14.7216 14.2457 14.2063C14.7416 13.6934 14.9611 13.0447 15.0655 12.2411C15.1673 11.4578 15.1673 10.4559 15.1673 9.18661V8.11152C15.1673 7.36947 15.1673 6.77772 15.1219 6.29384C15.0749 5.79453 14.9771 5.37212 14.7598 4.97513C14.542 4.5773 14.2406 4.27117 13.8481 3.97058C13.469 3.68031 12.9773 3.37512 12.3631 2.99398L10.9854 2.13892C10.3364 1.7361 9.81675 1.4136 9.36695 1.19487C8.90163 0.968587 8.47273 0.833374 8.00065 0.833374ZM5.52034 3.00279C6.19751 2.58251 6.67365 2.28773 7.07168 2.09417C7.45947 1.90559 7.73411 1.83337 8.00065 1.83337C8.2672 1.83337 8.54183 1.90559 8.92962 2.09417C9.32765 2.28773 9.80379 2.58251 10.481 3.00279L11.8143 3.83029C12.4549 4.22784 12.9046 4.50761 13.24 4.76451C13.5664 5.01447 13.7542 5.22075 13.8826 5.45528C14.0114 5.69064 14.0866 5.96581 14.1262 6.3874C14.1668 6.8191 14.1673 7.36392 14.1673 8.13599V9.15001C14.1673 10.464 14.1663 11.4008 14.0739 12.1122C13.983 12.8109 13.812 13.2163 13.5268 13.5113C13.2439 13.8039 12.8587 13.9776 12.1912 14.0705C11.5074 14.1656 10.6057 14.1667 9.33398 14.1667H6.66732C5.39563 14.1667 4.49387 14.1656 3.81013 14.0705C3.14256 13.9776 2.75741 13.8039 2.47451 13.5113C2.18933 13.2163 2.01826 12.8109 1.92744 12.1122C1.83498 11.4008 1.83398 10.464 1.83398 9.15001V8.13599C1.83398 7.36392 1.83449 6.8191 1.87506 6.3874C1.91467 5.96581 1.98988 5.69064 2.11871 5.45528C2.24709 5.22075 2.43487 5.01447 2.76126 4.76451C3.09672 4.50761 3.54645 4.22784 4.187 3.83029L5.52034 3.00279Z" fill="#1AB9FF"/>
</g>
<defs>
<clipPath id="clip0_363_1345">
<rect width="16" height="16" fill="white"/>
</clipPath>
</defs>
</svg>
